# xmcd
#
# Track frame offsets:
#	150
#	16620
#	37312
#	52702
#	72000
#	95565
#	113712
#	135207
#	147897
#	165880
#	181717
#	207942
#
# Disc length: 3113 seconds
#
# Revision: 0
# Processed by: cddbd v1.5.1PL0 Copyright (c) Steve Scherf et al.
# Submitted via: dBpowerAMP V4.0
#
DISCID=8d0c270c
DTITLE=rodger wilko - homemade
DYEAR=2003
DGENRE=texas country
TTITLE0=having fun
TTITLE1=good enough
TTITLE2=seven eleven
TTITLE3=hangin' on
TTITLE4=break
TTITLE5=playin' the fool
TTITLE6=too far from home
TTITLE7=moonshine
TTITLE8=chill pill
TTITLE9=going home
TTITLE10=the streets
TTITLE11=farewell my angel
EXTD=
EXTT0=
EXTT1=
EXTT2=
EXTT3=
EXTT4=
EXTT5=
EXTT6=
EXTT7=
EXTT8=
EXTT9=
EXTT10=
EXTT11=
PLAYORDER=
